<?xml version="1.0" encoding="UTF-8" standalone="no"?>
<svg xmlns="http://www.w3.org/2000/svg" width="77.069mm" height="108.101mm" viewBox="-531.005981 396.022888 77.069275 108.100647">
    <path transform="matrix(-0.176398,0,0,0.176398,-444.842316,390.906677)" style="fill:#000000;stroke:none" d="M341,218.037292C371.920685,214.455078,373.573425,214.203201,387.910461,210.888C429.23822,201.33168,449.293915,183.22522,469.752899,137C476.732422,121.230392,481.579254,93.54258,480.518616,75.5C478.514252,41.403595,477.348877,35.586662,472.342743,34.691105C469.938782,34.261055,71.915474,34.417446,66.698975,34.850491C63.56068,35.111012,61.943817,41.443172,60.56881,58.858166C58.866199,80.422394,59.263424,93.963776,61.981007,107C63.184887,112.775002,64.568687,119.415833,65.056122,121.757408C67.203339,132.072433,79.856354,158.752151,87.935448,170C97.939926,183.928406,109.376152,194.311554,121.142891,200.149643C129.48494,204.288559,144.723969,209.43158,154.5,211.407318C158.899994,212.296555,163.625,213.279297,165,213.591187C166.375,213.903076,169.074997,214.352371,171,214.58963C172.925003,214.826874,177.649994,215.450058,181.5,215.974472C191.274582,217.305893,218.198959,219.943924,226,220.334579C229.574997,220.513596,252.75,220.552185,277.5,220.420303C316.018982,220.215088,325.164429,219.871872,341,218.037292z"/>
</svg>
