<?xml version="1.0" encoding="UTF-8" standalone="no"?>
<svg xmlns="http://www.w3.org/2000/svg" width="77.069mm" height="108.101mm" viewBox="-531.005981 396.022888 77.069275 108.100647">
    <path transform="matrix(-0.176398,0,0,0.176398,-444.842316,390.906677)" style="fill:#000000;stroke:none" d="M245.736877,641.454834C245.606598,641.352783,238.75,640.969482,230.5,640.603149C187.55957,638.696289,157.284073,632.007263,151.287918,623.102112C148.140152,618.427246,148.272919,613.717102,151.626816,611.078918C155.157654,608.301575,170.836823,603.371826,185.369003,600.46991C195.067871,598.533203,199.730316,596.919189,210.869003,591.642517C218.366058,588.090942,226.374649,584.885315,228.665878,584.51886C232.058105,583.976379,233.311295,583.127991,235.413986,579.950623C236.834229,577.804504,239.123581,575.309937,240.50145,574.407104C243.62326,572.361633,251.639969,561.797424,253.562988,557.195007C254.79129,554.255249,255,531.31958,255,399.277863L255,244.800003L251.75,241.559799C245.895813,235.723267,241.494415,234.575943,192,225.984665C143.932678,217.641098,125.266396,210.197617,101.759979,190C97.34639,186.207672,84.909111,170.55394,78.685104,160.957642C58.480663,129.806,51.68409,103.010078,51.556133,54C51.525261,42.174999,51.821892,31.716368,52.215317,30.758595C52.892105,29.110991,64.622574,29.016508,269.995148,29.004522C475.981659,28.9925,487.096405,29.081373,487.779816,30.745928C488.175934,31.710667,488.482758,42.174999,488.4617,54C488.410217,82.912178,485.513245,106.322639,479.861298,123.5C474.682861,139.238205,465.118835,156.690353,452.442047,173.533859C438.923889,191.495316,421.761505,204.966873,402.91571,212.409439C391.461365,216.932968,370.982941,221.995255,348,225.984665C298.505585,234.575943,294.104187,235.723267,288.25,241.559799L285,244.800003L285,399.203644L285,553.6073L287.698395,559.022278C289.182495,562.000488,293.617828,567.826355,297.554657,571.968628C301.491516,576.110901,305.207733,580.446472,305.812927,581.60321C306.575836,583.061523,308.53653,584.033203,312.206635,584.771851C315.117981,585.357849,323.161713,588.571045,330.081604,591.912354C340.227631,596.811401,344.970367,598.458862,354.581604,600.422668C366.892273,602.93811,381.445953,607.172791,386.24057,609.634521C390.703186,611.925781,392.387115,615.296997,391.066986,619.297058C389.387848,624.384888,385.354523,627.562317,376.384796,630.863525C362.658783,635.915283,338.951172,639.317322,306,640.963623C289.191589,641.803406,246.624664,642.150391,245.736877,641.454834z"/>
</svg>
