<?xml version="1.0" encoding="UTF-8" standalone="no"?>
<svg xmlns="http://www.w3.org/2000/svg" xmlns:xlink="http://www.w3.org/1999/xlink" width="77.069mm" height="108.101mm" viewBox="-531.005981 396.022888 77.069275 108.100647">
    <path transform="matrix(-0.176398,0,0,0.176398,-444.842316,390.906677)" style="stroke:#000000;stroke-width:0.283450mm;fill:none" d="M245.736877,641.454834C245.606598,641.352783,238.75,640.969482,230.5,640.603149C187.55957,638.696289,157.284073,632.007263,151.287918,623.102112C148.140152,618.427246,148.272919,613.717102,151.626816,611.078918C155.157654,608.301575,170.836823,603.371826,185.369003,600.46991C195.067871,598.533203,199.730316,596.919189,210.869003,591.642517C218.366058,588.090942,226.374649,584.885315,228.665878,584.51886C232.058105,583.976379,233.311295,583.127991,235.413986,579.950623C236.834229,577.804504,239.123581,575.309937,240.50145,574.407104C243.62326,572.361633,251.639969,561.797424,253.562988,557.195007C254.79129,554.255249,255,531.31958,255,399.277863L255,244.800003L251.75,241.559799C245.895813,235.723267,241.494415,234.575943,192,225.984665C143.932678,217.641098,125.266396,210.197617,101.759979,190C97.34639,186.207672,84.909111,170.55394,78.685104,160.957642C58.480663,129.806,51.68409,103.010078,51.556133,54C51.525261,42.174999,51.821892,31.716368,52.215317,30.758595C52.892105,29.110991,64.622574,29.016508,269.995148,29.004522C475.981659,28.9925,487.096405,29.081373,487.779816,30.745928C488.175934,31.710667,488.482758,42.174999,488.4617,54C488.410217,82.912178,485.513245,106.322639,479.861298,123.5C474.682861,139.238205,465.118835,156.690353,452.442047,173.533859C438.923889,191.495316,421.761505,204.966873,402.91571,212.409439C391.461365,216.932968,370.982941,221.995255,348,225.984665C298.505585,234.575943,294.104187,235.723267,288.25,241.559799L285,244.800003L285,399.203644L285,553.6073L287.698395,559.022278C289.182495,562.000488,293.617828,567.826355,297.554657,571.968628C301.491516,576.110901,305.207733,580.446472,305.812927,581.60321C306.575836,583.061523,308.53653,584.033203,312.206635,584.771851C315.117981,585.357849,323.161713,588.571045,330.081604,591.912354C340.227631,596.811401,344.970367,598.458862,354.581604,600.422668C366.892273,602.93811,381.445953,607.172791,386.24057,609.634521C390.703186,611.925781,392.387115,615.296997,391.066986,619.297058C389.387848,624.384888,385.354523,627.562317,376.384796,630.863525C362.658783,635.915283,338.951172,639.317322,306,640.963623C289.191589,641.803406,246.624664,642.150391,245.736877,641.454834z"/>
    <path transform="matrix(-0.176398,0,0,0.176398,-444.842316,390.906677)" style="stroke:#000000;stroke-width:0.283450mm;fill:none" d="M302,633.548523C313.151703,632.872986,319.576874,632.288574,330.5,630.956299C335.450012,630.3526,342.267731,629.777893,345.650482,629.679321C349.033264,629.580688,351.594208,629.162476,351.341461,628.75C351.088745,628.337524,351.471039,627.942566,352.190979,627.872375C352.91095,627.802185,354.512512,627.638611,355.75,627.508911C356.987488,627.379211,358,627.630188,358,628.066711C358,628.503235,359.462494,628.406677,361.25,627.852173C364.752808,626.765503,367.175476,626.32843,370.809021,626.127625C372.078979,626.057434,372.843109,625.555176,372.50708,625.011475C372.167358,624.461731,372.53363,624.267517,373.332153,624.573975C374.121979,624.877075,377.745331,623.775085,381.384094,622.125244C387.001495,619.578186,388,618.74408,388,616.598755C388,614.800903,386.923492,613.340576,384.267853,611.536072C382.215179,610.141235,380.077698,609.001709,379.517853,609.003723C378.958038,609.005798,379.962494,609.89917,381.75,610.989014C383.537506,612.078918,385,613.327087,385,613.762817C385,615.53894,381.768402,619,380.109955,619C379.132813,619,378.020294,619.313049,377.637726,619.695618C377.255127,620.078186,376.392639,620.485535,375.721069,620.60083C375.049469,620.716125,370,621.742126,364.5,622.880859C359,624.019531,352.024994,625.215271,349,625.538025C345.975006,625.860718,341.485962,626.57135,339.024353,627.117188C336.562744,627.663025,331.509033,628.277954,327.793884,628.483704C324.078705,628.689514,320.692749,629.067566,320.269531,629.323853C319.846283,629.580139,305.774994,630.068115,289,630.408142C255.305405,631.091125,223.13501,630.017639,205,627.605225C196.24585,626.440674,185.0867,624.595947,176.026398,622.815491C170.265915,621.683533,164.99144,620.674988,164.305344,620.57428C163.619247,620.473633,162.744858,620.078186,162.362274,619.695618C161.979691,619.313049,160.954163,618.98584,160.083328,618.968567C159.212494,618.951294,157.675262,617.804749,156.667236,616.420776C155.209778,614.419617,155.081268,613.606995,156.039688,612.452148C156.820313,611.511597,156.869446,611,156.179153,611C154.75148,611,152,615.027771,152,617.117676C152,618.109497,154.033722,619.853821,156.996048,621.402771C159.743881,622.839539,162.106369,623.980103,162.246048,623.937256C162.385727,623.894409,163.70253,624.316589,165.172287,624.875427C166.642029,625.434204,169.567032,626.11377,171.672287,626.38562C173.777527,626.657471,177.072037,627.356873,178.993393,627.939941C183.312744,629.25061,183.273621,629.25177,182.402649,627.842468C181.901062,627.030884,182.406448,626.87738,184.093628,627.328796C185.41713,627.682922,187.08905,627.978821,187.809021,627.986328C188.528976,627.993835,188.911652,628.337524,188.659393,628.75C188.40715,629.162476,190.968094,629.558594,194.350388,629.630188C197.732666,629.701782,204.115784,630.266174,208.535065,630.884399C218.820999,632.323303,224.207245,632.753967,242,633.56012C249.975006,633.921448,256.667236,634.372925,256.871643,634.563477C257.332489,634.993103,290.447449,634.248291,302,633.548523z"/>
    <path transform="matrix(-0.176398,0,0,0.176398,-444.842316,390.906677)" style="stroke:#000000;stroke-width:0.283450mm;fill:none" d="M325.75,624.230652C328.637512,623.718079,331.006897,623.56897,331.01532,623.899353C331.023743,624.229675,331.436737,623.858337,331.933075,623.074036C332.429413,622.289795,333.799927,621.500916,334.978638,621.321045C336.222198,621.131226,336.861572,621.414978,336.501862,621.997009C336.160919,622.548645,336.33197,623,336.881958,623C337.431976,623,338.179047,622.519348,338.542145,621.931824C338.905212,621.34436,339.872406,621.120789,340.691406,621.435059C341.510406,621.749329,342.698334,621.686462,343.331299,621.295227C343.964233,620.904053,345.956116,620.520142,347.75769,620.442017C349.559265,620.363953,351.329407,620.003906,351.691345,619.641968C352.053284,619.280029,346.971954,619.167969,340.399475,619.392883C331.22049,619.707031,328.00528,619.477051,326.53363,618.40094C325.479889,617.630432,324.983856,617,325.431305,617C325.878784,617,325.679749,616.319031,324.989044,615.486816C324.29834,614.654541,323.230713,614.032837,322.616608,614.105286C319.832489,614.433594,314.650879,613.782715,315.95697,613.268738C316.838257,612.921936,315.652832,612.174133,312.95697,611.376343C309.824371,610.44928,305.974243,610.266602,300,610.761597C290.669067,611.534729,255.174667,611.63562,236.904022,610.940918C227.731064,610.592102,224.941299,610.804321,223.552917,611.95636C222.227646,613.05603,219.128525,613.379395,210.898895,613.276733C204.90451,613.201965,200,613.345215,200,613.595154C200,613.845032,201.125,614.477234,202.5,615C208.0233,617.099976,203.617981,618.986755,193.125,619.01532C189.314896,619.025696,187.968567,619.327026,188.952255,619.949341C189.750992,620.45459,190.725739,620.669495,191.118332,620.42688C191.510941,620.184204,193.07048,620.456482,194.583954,621.031921C196.097443,621.607361,198.497711,622.235535,199.917877,622.427795C201.338043,622.620117,204.648254,623.091003,207.273895,623.474182C218.616241,625.129456,236.192902,625.61377,277,625.395386C300.924988,625.267395,322.862488,624.743286,325.75,624.230652z"/>
    <path transform="matrix(-0.176398,0,0,0.176398,-444.842316,390.906677)" style="stroke:#000000;stroke-width:0.283450mm;fill:none" d="M216.089096,600.614929C219.065094,599.141418,224.875,595.58783,229,592.717957C236.141968,587.749084,236.360672,587.484131,233.581223,587.167297C228.950851,586.639465,222.382309,588.822693,209.731949,595.094116C203.259506,598.302856,197.749176,600.955139,197.486755,600.988098C197.224319,601.021118,195.544952,601.374756,193.754807,601.774048C190.831589,602.426025,191.111267,602.556824,196.5,603.057983C206.241364,603.963928,210.363205,603.44989,216.089096,600.614929z"/>
    <path transform="matrix(-0.176398,0,0,0.176398,-444.842316,390.906677)" style="stroke:#000000;stroke-width:0.283450mm;fill:none" d="M343.698578,603C345.056915,603,345.846985,602.561401,345.5,602C345.160095,601.450012,344.194153,601,343.353455,601C342.512787,601,338.826843,599.313904,335.162476,597.253052C331.498108,595.192261,327.149994,592.988403,325.5,592.355591C323.850006,591.722839,320.072876,590.236206,317.106415,589.052063C313.816803,587.738892,310.110962,587.016235,307.606415,587.199524L303.5,587.5L312.484833,593.5C325.63913,602.284363,330.253967,604.168762,336.889557,603.465332C339.303833,603.209412,342.367889,603,343.698578,603z"/>
    <path transform="matrix(-0.176398,0,0,0.176398,-444.842316,390.906677)" style="stroke:#000000;stroke-width:0.283450mm;fill:none" d="M301.716675,596.166687C301.504242,594.042297,300.408264,591.408264,299.258301,590.258301C297.259033,588.259033,296.184448,588.183472,269.841614,588.190369L242.5,588.197449L240.645035,590.675964C238.748123,593.210571,237.738007,599,239.192688,599C239.636703,599,240,598.627869,240,598.173096C240,597.718262,242.137497,597.507813,244.75,597.705383C250.946991,598.174011,290.399536,598.149292,295.254486,597.673706C297.582153,597.445679,299.433868,597.81781,300.126953,598.652954C301.85614,600.736511,302.130707,600.307129,301.716675,596.166687z"/>
    <path transform="matrix(-0.176398,0,0,0.176398,-444.842316,390.906677)" style="stroke:#000000;stroke-width:0.283450mm;fill:none" d="M245.194946,578.41803C247.562729,575.897888,250.175674,572.417969,251.001495,570.684753C252.177094,568.217407,253.319016,567.400818,256.262543,566.922363C261.117767,566.133179,262.240173,565,258.166656,565C254.534256,565,254.222458,563.796692,256.464447,558.430847C258.817047,552.800293,256.240173,555.578186,252.85405,562.322876C250.915649,566.183838,247.3302,570.827881,243.291687,574.708374C237.283417,580.481567,236.132965,583,239.503967,583C240.26622,583,242.827164,580.93811,245.194946,578.41803z"/>
    <path transform="matrix(-0.176398,0,0,0.176398,-444.842316,390.906677)" style="stroke:#000000;stroke-width:0.283450mm;fill:none" d="M303,581.61853C303,580.858704,300.362915,577.821228,297.139801,574.86853C293.646118,571.667969,289.763306,566.753296,287.524811,562.698303C285.459686,558.957397,283.560333,556.106323,283.304016,556.362671C283.047668,556.618958,283.324432,557.737671,283.918976,558.848633C284.51355,559.959534,285,561.798096,285,562.934265C285,564.792358,284.396973,565,279,565C273.740753,565,273,564.761902,273,563.071411C273,562.010742,272.212494,560.352478,271.25,559.386475C269.58194,557.71228,269.476593,557.790894,269,561.065002C268.5625,564.070557,268.062408,564.577332,265,565.118347L261.5,565.736694L265,566.014954C266.924988,566.167969,272.409546,566.373962,277.187897,566.472595C285.864807,566.651794,289,567.748596,289,570.604858C289,571.352905,291.024994,574.078308,293.5,576.661316C295.975006,579.244385,298,581.727295,298,582.178894C298,582.630493,299.125,583,300.5,583C301.960236,583,303,582.425415,303,581.61853z"/>
    <path transform="matrix(-0.176398,0,0,0.176398,-444.842316,390.906677)" style="stroke:#000000;stroke-width:0.283450mm;fill:none" d="M275,572C275,571.450012,272.975006,571,270.5,571C268.024994,571,266,571.450012,266,572C266,572.549988,268.024994,573,270.5,573C272.975006,573,275,572.549988,275,572z"/>
    <path transform="matrix(-0.176398,0,0,0.176398,-444.842316,390.906677)" style="stroke:#000000;stroke-width:0.283450mm;fill:none" d="M272.523102,548.23468C274.776245,546.616699,277.211121,541.525146,279.232208,534.205322C281.324951,526.625916,281.356415,525.257996,281.156738,450.5C280.972321,381.462891,279.732056,321.43808,278.356964,315C278.063263,313.625,277.52533,300.350006,277.161499,285.5L276.5,258.5L270,258.5L263.5,258.5L262.844421,285.5C262.483856,300.350006,261.95871,313.452728,261.677429,314.617188C260.340881,320.150116,259.007355,383.798462,258.788574,452.5C258.572418,520.384949,258.717621,528.881531,260.148285,532.072937C261.029236,534.038086,261.75,536.792725,261.75,538.194397C261.75,539.596008,262.818756,542.263184,264.125,544.121399C266.921326,548.099365,267.975647,548.96936,270,548.96936C270.825012,548.96936,271.960388,548.638794,272.523102,548.23468z"/>
    <path transform="matrix(-0.176398,0,0,0.176398,-444.842316,390.906677)" style="stroke:#000000;stroke-width:0.283450mm;fill:none" d="M277,253.596512C277,252.637482,275.495789,252.083298,272.25,251.846512C265.732147,251.371033,263,251.879959,263,253.56955C263,254.67392,264.595703,255,270,255C275.341614,255,277,254.667496,277,253.596512z"/>
    <path transform="matrix(-0.176398,0,0,0.176398,-444.842316,390.906677)" style="stroke:#000000;stroke-width:0.283450mm;fill:none" d="M276.4133,242.394897C277.280579,242.062088,278.934814,240.109055,280.089355,238.054825C281.243896,236.000595,283.608582,233.460388,285.344269,232.409927L288.5,230.5L279.25,230.212479C274.162506,230.054337,265.837494,230.054337,260.75,230.212479L251.5,230.5L254.655746,232.409927C256.391418,233.460388,258.763397,236.01355,259.926849,238.083633C261.090302,240.153702,262.595215,242.071213,263.271088,242.344757C265.057251,243.067627,274.565643,243.103912,276.4133,242.394897z"/>
    <path transform="matrix(-0.176398,0,0,0.176398,-444.842316,390.906677)" style="stroke:#000000;stroke-width:0.283450mm;fill:none" d="M341,218.037292C371.920685,214.455078,373.573425,214.203201,387.910461,210.888C429.23822,201.33168,449.293915,183.22522,469.752899,137C476.732422,121.230392,481.579254,93.54258,480.518616,75.5C478.514252,41.403595,477.348877,35.586662,472.342743,34.691105C469.938782,34.261055,71.915474,34.417446,66.698975,34.850491C63.56068,35.111012,61.943817,41.443172,60.56881,58.858166C58.866199,80.422394,59.263424,93.963776,61.981007,107C63.184887,112.775002,64.568687,119.415833,65.056122,121.757408C67.203339,132.072433,79.856354,158.752151,87.935448,170C97.939926,183.928406,109.376152,194.311554,121.142891,200.149643C129.48494,204.288559,144.723969,209.43158,154.5,211.407318C158.899994,212.296555,163.625,213.279297,165,213.591187C166.375,213.903076,169.074997,214.352371,171,214.58963C172.925003,214.826874,177.649994,215.450058,181.5,215.974472C191.274582,217.305893,218.198959,219.943924,226,220.334579C229.574997,220.513596,252.75,220.552185,277.5,220.420303C316.018982,220.215088,325.164429,219.871872,341,218.037292z"/>
    <path transform="matrix(-0.176398,0,0,0.176398,-444.842316,390.906677)" style="stroke:#000000;stroke-width:0.283450mm;fill:none" d="M162.729172,31.395834C162.396881,31.063541,161.534378,31.028015,160.8125,31.316887C160.014771,31.636112,160.251724,31.873068,161.416672,31.921053C162.47084,31.964474,163.061462,31.728125,162.729172,31.395834z"/>
    <path transform="matrix(-0.176398,0,0,0.176398,-444.842316,390.906677)" style="stroke:#000000;stroke-width:0.283450mm;fill:none" d="M246.767914,31.285473C245.265259,31.057299,242.565262,31.052708,240.767914,31.275269C238.970566,31.497829,240.199997,31.684519,243.5,31.69013C246.800003,31.695744,248.270554,31.513647,246.767914,31.285473z"/>
    <path transform="matrix(-0.176398,0,0,0.176398,-444.842316,390.906677)" style="stroke:#000000;stroke-width:0.283450mm;fill:none" d="M298.75,31.283745C297.237488,31.054621,294.762512,31.054621,293.25,31.283745C291.737488,31.512871,292.975006,31.700336,296,31.700336C299.024994,31.700336,300.262512,31.512871,298.75,31.283745z"/>
    <path transform="matrix(-0.176398,0,0,0.176398,-444.842316,390.906677)" style="stroke:#000000;stroke-width:0.283450mm;fill:none" d="M379.729156,31.395834C379.396881,31.063541,378.534363,31.028015,377.8125,31.316887C377.014771,31.636112,377.251709,31.873068,378.416656,31.921053C379.470825,31.964474,380.061462,31.728125,379.729156,31.395834z"/>
    <path transform="matrix(-0.176398,0,0,0.176398,-444.842316,390.906677)" style="stroke:#000000;stroke-width:0.283450mm;fill:none" d="M321.57309,623.118286C321.337189,622.736572,322.236755,622.333862,323.572083,622.223328C324.90744,622.112854,326,622.18988,326,622.394592C326,623.137939,321.990356,623.793396,321.57309,623.118286z"/>
</svg>
